PathFileType	4	(X/Y/Z)	D:\Long Term Storage\D'Arcy Smith\Coord9.trc
DataRate	CameraRate	NumFrames	NumMarkers	Units	OrigDataRate	OrigDataStartFrame	OrigNumFrames
120.00	120.00	      150	4	mm	120.00	601	      4803
Frame#	Time	M1			M2			M3			M4			
		X1	Y1	Z1	X2	Y2	Z2	X3	Y3	Z3	X4	Y4	Z4	

601	5.000	1080.98584	539.02020	172.21254	1650.99548	367.31332	667.94141							
602	5.008	1080.43982	538.58655	171.36636	1649.46814	375.72827	680.78906							
603	5.017	1079.94250	537.08136	171.43010	1647.84387	384.03506	691.92041							
604	5.025	1078.12610	533.34570	172.12093	1646.02783	391.75882	701.22107							
605	5.033	1076.79541	528.59155	173.93745	1644.20618	398.62170	708.64703							
606	5.042	1075.75757	523.04877	176.06863	1642.27722	404.59033	714.32867							
607	5.050	1074.32422	515.55524	179.68938	1640.32275	409.27621	718.19312							
608	5.058	1072.57141	506.71439	183.78484	1638.50647	412.35162	720.18341							
609	5.067	1070.48352	496.60428	189.08502	1636.46838	414.23969	720.41260							
610	5.075	1068.37341	485.31525	195.40817	1635.00305	413.67249	718.55798							
611	5.083	1066.19116	472.83429	202.84062	1633.13171	411.54208	714.99713							
612	5.092	1063.92407	459.33487	211.66748	1631.50208	408.09415	709.78217							
613	5.100	1061.52698	445.04590	221.85175	1629.65967	403.35086	702.76941							
614	5.108	1059.46265	430.15009	233.65976	1627.83813	397.42892	694.17303							
615	5.117	1057.18518	414.93661	247.09715	1625.72046	390.85718	683.95154							
616	5.125	1055.23425	399.45761	263.18851	1623.39563	383.43127	672.23926							
617	5.133	1053.16858	384.82028	280.15314	1621.18286	376.02420	659.16467							
618	5.142	1051.16919	370.95343	298.29034	1619.48694	369.06555	644.70728							
619	5.150	1049.23792	357.89700	317.83481	1616.89343	361.98883	629.18768							
620	5.158	1047.53003	345.96771	338.80072	1614.66833	355.04126	612.40186							
621	5.167	1045.96057	335.37488	360.28613	1612.75256	349.01776	594.81110							
622	5.175	1044.44104	326.45392	382.69345	1610.81641	343.45547	576.52057							
623	5.183	1042.61597	319.52393	404.91620	1608.88464	339.21719	557.49152							
624	5.192	1041.39343	314.40683	427.34998	1607.16003	335.75858	538.30481							
625	5.200	1039.91309	311.55469	448.50314	1606.01746	332.90439	518.56085							
626	5.208	1038.96313	310.55884	468.91205	1604.51990	330.73859	499.58310							
627	5.217	1037.79517	310.17764	488.19308	1603.27319	331.22708	481.46603							
628	5.225	1037.03772	311.34937	505.29587	1602.11609	331.89053	464.39215							
629	5.233	1036.16028	313.72961	519.02863	1601.22375	333.51755	448.77417							
630	5.242	1035.91443	315.81769	531.29974	1599.22058	335.18939	434.77252							
631	5.250	1035.48718	318.42020	539.08154	1599.14148	337.87155	422.26221							
632	5.258	1035.35950	320.67175	543.07916	1599.39612	340.85596	411.34567							
633	5.267	1035.58142	322.48254	543.41711	1598.60999	343.20444	401.88824							
634	5.275	1036.51636	323.79657	539.97235	1599.15845	345.88052	394.21432							
635	5.283	1037.22131	324.76035	533.18359	1599.46631	348.14532	387.97592							
636	5.292	1038.67261	325.29050	523.31555	1603.83472	351.55347	382.73248							
637	5.300	1040.01306	326.36398	510.96194	1603.92700	352.59790	379.55405							
638	5.308	1041.23975	328.26678	495.83533	1605.49146	353.60226	377.44223							
639	5.317	1043.09119	330.21344	479.75027	1608.30164	354.54254	376.47739							
640	5.325	1044.82153	333.06281	462.60980	1609.20801	353.92993	376.70114							
641	5.333	1046.85950	336.96362	444.64346	1610.93079	353.06363	377.95627							
642	5.342	1049.13611	341.22574	427.05798	1613.03101	351.78354	380.30988							
643	5.350	1050.92273	347.29504	408.58102	1615.13269	350.05310	383.63489							
644	5.358	1052.90979	354.20352	390.29367	1618.32104	348.36111	388.06323							
645	5.367	1054.53796	361.83011	372.60214	1618.70850	344.30627	393.65195							
646	5.375	1056.44238	370.61679	355.26544	1621.63220	341.94839	400.12408							
647	5.383	1058.03601	379.88724	338.85199	1622.86157	338.26675	407.57214							
648	5.392	1059.87769	389.48691	323.21643	1624.93896	334.78754	416.32562							
649	5.400	1061.69946	399.50403	308.33627	1627.63818	331.95084	426.46686							
650	5.408	1063.43176	409.82346	294.33490	1629.93323	327.94226	437.59348							
651	5.417	1065.36292	420.24341	281.28372	1631.85815	325.86652	450.20248							
652	5.425	1067.09338	430.63324	269.04889	1633.69507	323.36734	463.81000							
653	5.433	1069.00635	441.10028	256.92099	1635.48425	322.10947	478.61176							
654	5.442	1070.82715	451.59787	246.26942	1637.27795	320.33746	494.43243							
655	5.450	1072.75769	461.25882	236.72444	1639.36353	320.36569	511.22400							
656	5.458	1074.24854	470.62228	228.11011	1641.08472	320.82001	528.75806							
657	5.467	1075.88538	479.24033	220.32529	1643.05688	322.38062	546.76532							
658	5.475	1078.04370	487.36765	213.51599	1644.62878	325.17258	565.15741							
659	5.483	1079.17761	494.32611	207.51772	1646.22327	329.79175	583.55670							
660	5.492	1080.59106	500.60373	202.45451	1647.30237	335.24973	601.56451							
661	5.500	1081.54382	505.89047	198.35507	1647.86938	341.59210	618.92792							
662	5.508	1082.51831	510.80508	194.91461	1648.22766	349.96420	635.70105							
663	5.517	1082.97803	513.98053	192.50943	1648.20593	357.95230	650.97888							
664	5.525	1082.85474	516.22760	190.60266	1647.91394	366.69763	665.00891							
665	5.533	1083.08472	517.39154	189.67046	1647.50427	375.52570	677.61859							
666	5.542	1082.87659	517.51813	189.34908	1646.87439	384.19904	688.68799							
667	5.550	1081.96936	516.19794	189.62257	1646.11035	392.34052	698.13574							
668	5.558	1081.31543	513.93695	190.77199	1645.31824	399.66599	705.89923							
669	5.567	1080.28772	510.39313	192.58464	1644.64026	406.07587	712.00439							
670	5.575	1078.84998	505.51425	194.78194	1643.95361	411.16385	716.53741							
671	5.583	1077.42236	499.44586	198.17581	1643.21899	414.97272	719.38031							
672	5.592	1075.94629	492.37314	201.96936	1642.63916	417.34491	720.64313							
673	5.600	1073.79492	484.35056	206.68611	1641.82068	418.15207	720.18732							
674	5.608	1071.95386	475.04999	212.16437	1640.99268	417.29276	717.93671							
675	5.617	1069.93567	464.76575	218.46538	1640.08582	414.90234	714.26501							
676	5.625	1067.78662	453.58466	225.70682	1638.88110	411.10934	708.70282							
677	5.633	1065.78955	441.55423	233.93137	1637.45190	405.98618	701.37537							
678	5.642	1063.68530	429.13309	243.13565	1635.97180	399.95941	692.35498							
679	5.650	1061.54004	416.42883	252.98071	1634.32935	393.14215	681.60168							
680	5.658	1059.64331	402.78589	266.07883	1632.51526	385.92151	669.14270							
681	5.667	1057.88257	389.83905	278.76633	1630.30969	378.51462	655.06451							
682	5.675	1055.92322	377.22144	292.54489	1628.07019	370.87186	639.31793							
683	5.683	1054.16272	365.10715	307.55856	1626.11279	364.06577	622.04755							
684	5.692	1052.57764	353.73270	323.38828	1623.48535	357.20627	603.53894							
685	5.700	1051.02075	343.16605	340.20892	1621.14392	351.34515	583.84680							
686	5.708	1049.40771	333.40909	358.02872	1619.13721	346.39432	563.21246							
687	5.717	1048.03052	325.07309	376.07883	1616.60730	342.51624	541.69745							
688	5.725	1045.97375	318.08090	394.51566	1614.55798	339.33560	519.43463							
689	5.733	1044.71289	312.92831	413.65439	1612.44141	337.78918	497.01724							
690	5.742	1043.37341	309.09439	432.60214	1610.03284	337.56973	474.34186							
691	5.750	1041.61963	307.62756	450.35068	1607.87854	338.37244	452.00104							
692	5.758	1040.48218	306.80371	468.86551	1605.17859	340.28702	430.39584							
693	5.767	1038.96094	307.35031	485.13135	1600.14160	341.86084	409.40353							
694	5.775	1037.69641	308.57928	500.92682	1599.10034	345.81635	389.68204							
695	5.783	1036.46472	310.61911	514.94897	1595.43298	349.37738	371.06775							
696	5.792	1035.56445	312.19620	527.81305	1594.05640	354.39536	354.34967							
697	5.800	1034.49866	314.55432	537.88458	1591.24304	358.77707	339.33975							
698	5.808	1033.52454	316.70398	545.63263	1590.51746	363.89664	326.49036							
699	5.817	1032.56335	318.50565	550.81232	1588.31274	368.46103	315.56122							
700	5.825	1031.71924	319.83850	553.30695	1586.03442	371.89716	306.64246							
701	5.833	1031.11377	320.75586	553.43066	1584.87317	375.58673	299.81079							
702	5.842	1030.34521	321.35971	550.94208	1584.32031	377.77881	294.63489							
703	5.850	1029.75305	321.63052	546.29388	1584.21265	379.43854	291.34302							
704	5.858	1029.51648	321.76889	539.62842	1584.28723	380.09296	289.76892							
705	5.867	1029.52075	321.91620	530.96906	1584.81372	379.86081	289.70493							
706	5.875	1029.38037	322.36090	521.12952	1585.62500	378.65240	291.07263							
707	5.883	1029.30701	323.23303	509.89075	1587.85632	376.99365	293.75568							
708	5.892	1029.62805	324.73624	497.50909	1589.63281	374.13495	297.68573							
709	5.900	1029.58435	327.57443	483.51978	1590.13599	370.09366	302.96655							
710	5.908	1030.29272	330.52341	469.49057	1592.96191	366.15573	309.72537							
711	5.917	1031.08386	334.28140	455.20776	1594.11108	360.80856	317.76047							
712	5.925	1032.52759	338.47058	440.88870	1597.30786	355.88751	327.57755							
713	5.933	1034.14246	343.39630	425.75845	1599.92151	350.24921	338.96231							
714	5.942	1036.01892	348.92917	410.61609	1601.50989	343.86533	352.09976							
715	5.950	1037.82288	355.61172	395.11298	1605.38586	338.63669	367.12524							
716	5.958	1039.81506	362.77585	379.92902	1608.72021	333.16837	383.70615							
717	5.967	1042.12451	370.49747	364.73544	1611.50525	328.36533	402.32596							
718	5.975	1044.70581	378.96268	350.04974	1614.83752	323.70483	422.30533							
719	5.983	1047.24878	387.72665	335.40155	1618.00085	320.98953	443.54935							
720	5.992	1050.03845	396.61438	321.56015	1620.97473	319.65698	465.81458							
721	6.000	1052.52747	405.59067	308.16699	1623.75659	319.97473	488.29056							
722	6.008	1055.37830	414.60938	295.60199	1626.34692	321.97531	510.63876							
723	6.017	1058.09448	423.55215	283.59265	1628.74646	325.27811	532.21472							
724	6.025	1060.78027	432.20505	272.53439	1630.65735	329.66174	552.55695							
725	6.033	1063.14551	440.46198	262.62485	1631.93823	334.94159	571.49042							
726	6.042	1065.17578	448.58679	252.55412	1632.91028	340.68826	588.36987							
727	6.050	1066.73071	455.40112	244.99466	1633.56750	346.69052	603.30298							
728	6.058	1068.17383	461.07343	238.88118	1633.65479	352.26297	616.17340							
729	6.067	1069.34216	465.35886	234.46008	1633.68530	357.70624	627.03516							
730	6.075	1069.99292	468.24677	231.64963	1632.89551	362.11707	635.61548							
731	6.083	1069.76013	469.47827	230.44844	1631.49048	365.55722	642.18250							
732	6.092	1069.04529	468.97070	230.92389	1629.81165	368.05994	646.24731							
733	6.100	1067.87634	466.81403	232.79054	1627.44043	369.51859	648.24731							
734	6.108	1066.25989	463.25134	236.18765	1624.38379	369.76193	648.14105							
735	6.117	1064.13660	458.18668	240.80986	1621.44836	369.28809	645.98163							
736	6.125	1061.75195	451.97653	246.68219	1617.92676	366.92395	641.47125							
737	6.133	1059.07788	444.80560	253.50156	1614.45398	364.63110	635.23285							
738	6.142	1056.40991	436.45190	261.32639	1610.50061	361.45749	627.38776							
739	6.150	1053.45190	427.79391	271.17377	1606.07031	357.67340	617.48572							
740	6.158	1050.57849	418.61002	280.59515	1602.07629	354.03403	606.22803							
741	6.167	1047.51660	409.21069	290.65277	1605.20349	353.02777	595.58191							
742	6.175	1044.52722	399.49490	301.27609	1608.52124	351.91534	584.23279							
743	6.183	1041.63086	389.59613	312.33096	1611.81238	350.99664	571.27368							
744	6.192	1038.92432	379.56342	323.92804	1614.76038	350.09018	557.08368							
745	6.200	1036.67322	369.61676	335.83853	1617.38501	349.36450	541.69269							
746	6.208	1034.27588	359.71606	348.21387	1619.83704	349.04996	525.19824							
747	6.217	1032.38940	350.10858	361.07590	1621.87878	348.42322	507.62137							
748	6.225	1030.93945	341.05255	374.57864	1623.86353	348.90494	489.46378							
749	6.233	1029.66956	333.16641	388.33249	1625.17456	349.86273	470.89038							
750	6.242	1028.26575	325.83432	402.94983	1626.33667	351.41180	452.06650							
